<svg xmlns="http://www.w3.org/2000/svg" viewBox="0 0 381.34 106.86"><defs><style>.cls-1{fill:#c4b991;}</style></defs><g id="Capa_2" data-name="Capa 2"><g id="Capa_1-2" data-name="Capa 1"><path class="cls-1" d="M41.92,0V11.67S39.25,5.67,28.08,5c0,0-18.66-.83-19.33,20.83,0,0,.5,18.84,18.17,19.67,0,0,10,1,16.5-7.17l-.59,10s-9.5,2.92-16.75,2.92c0,0-24.83.37-26.08-25.63C0,25.62-.44,1.31,26.5.31A82.7,82.7,0,0,1,39.06,1.5,2.86,2.86,0,0,0,41.92,0Z"/><path class="cls-1" d="M89.25.42s22.88-.92,23.63,25.21c0,0-.25,24.12-23.63,25.62,0,0-23.25.91-25.37-25.42C63.88,25.83,63.25.08,89.25.42ZM72.13,25.62C73.5,46.5,88.37,45.88,88.37,45.88c16.5-1.5,16.38-20.05,16.38-20.05,0-21-15.87-20.45-15.87-20.45C71.75,6.12,72.13,25.62,72.13,25.62Z"/><path class="cls-1" d="M134.63.41V45.25s0,4.37-4,5.37h15.25s-4.5-1.5-4.5-5.62l.12-28.75,37.38,35v-44s.12-4.75,3.75-5.13h-14.5a4.75,4.75,0,0,1,4,4.76L172.5,36Z"/><path class="cls-1" d="M205.13,2.38s3.5.62,3.5,4.87V43s.12,6.75-4.25,7.38h15.5S215.5,49,215.5,43V7.88a14.57,14.57,0,0,1,4.38-.76s9.62.13,9.5,8.38c0,0,1,7.25-9.38,9.75l20.25,25.13H251a45.24,45.24,0,0,1-8.87-8.26L228.88,25.83s8.37-1.95,8.62-10.71c0,0,2.38-12.74-15-12.74Z"/><path class="cls-1" d="M286.75,0,306.5,45s1.75,4.34,5.38,5.61H296.63s4-1,2.25-5.23l-12.19-31L274.5,45.5c-1.69,4.32,2.5,5.11,2.5,5.11H261.75s3.13-1,5.13-5.61Z"/><path class="cls-1" d="M344.38,2.25c29.5,1.5,27.25,24.18,27.25,24.18-.63,25.3-29.38,24.18-29.38,24.18h-17c3.5-.4,4.25-4.61,4.25-4.61V6.75c-.12-3.87-4.25-4.5-4.25-4.5Zm-8,38.87c-.13,4.38,5.87,4.13,5.87,4.13C364.63,44.88,363,26.43,363,26.43c-.75-20.07-18.62-19.18-18.62-19.18h-8Z"/><path class="cls-1" d="M375.5,2.15h1.73a1.23,1.23,0,0,1,1.33,1.27,1.28,1.28,0,0,1-.87,1.31l1,2H378l-.89-1.88-1,0V6.69h-.6V2.15Zm.6.6V4.29h1.23a.76.76,0,0,0,.69-.77.74.74,0,0,0-.79-.77Z"/><path class="cls-1" d="M380.48,4.42A3.52,3.52,0,1,1,377,.9,3.53,3.53,0,0,1,380.48,4.42ZM377,.08a4.39,4.39,0,1,0,4.38,4.39A4.4,4.4,0,0,0,377,.08Z"/><path class="cls-1" d="M151.69,80.44h9.81s6.94-.13,7,5a7.06,7.06,0,0,1-3.37,6.18s6,1.44,6.06,7.5c0,0,.56,6.94-9.06,7.26h-9.57a.51.51,0,0,1-.39-.42s-.09-.33.37-.29l.92,0s1.5,0,1.54-2.75.08-20.38.08-20.38.13-1.62-3.39-1.58c0,0-.31-.08-.31-.29C151.38,80.71,151.33,80.44,151.69,80.44Zm7.39,9.89c.09,1.29,1,1.13,1,1.13h1.15c4.16-.13,3.68-4.75,3.68-4.75a4.68,4.68,0,0,0-4.33-5c-1.34-.08-1.55.58-1.55.58Zm0,11.88c.09,3,3.71,2.67,3.71,2.67a4.12,4.12,0,0,0,4.34-4.46c-.67-7.84-6.25-7.59-6.25-7.59h-1.8Z"/><path class="cls-1" d="M189.42,79.92s14.16-.25,13.83,13c0,0,.25,13-13.83,13.83,0,0-13.5.48-14.09-13.34C175.33,93.41,175.08,80.42,189.42,79.92Zm-9.36,12.2c.19,13.26,10.5,13,10.5,13,9.07-.87,7.94-11,7.94-11-.62-13-9.77-12.43-9.77-12.43C179.52,81.56,180.06,92.12,180.06,92.12Z"/><path class="cls-1" d="M206.25,80.69s-.25-.31.31-.31h10.57s8.18-.26,8.12,6.18c0,0,.75,3.5-4.44,7.75l6.32,7.94s3.12,3.63,6.06,3.5c0,0,2.75.56,4.25-3.06l9.19-22.77s.43-.46.75,0l9.18,22.33a4.58,4.58,0,0,0,4.44,3.53s.23,0,.23.16c0,0,.23.39-.35.39h-8.17s-.52.15-.48-.39a.25.25,0,0,1,.25-.27s.92.14.37-1.21S250,97.54,250,97.54l-7.83,0-2.46,5.83s-.87,2.21.71,2.34l1.21,0s.29-.07.28.26a.35.35,0,0,1-.32.38h-13.3s-3.27,0-6.27-4.35l-4.68-6.38h-3.57l.13,7.57s.06,2.31,1.56,2.43h1.42s.55-.06.53.35c0,0,.13.36-.4.38H207.3a.42.42,0,0,1-.52-.41.23.23,0,0,1,.25-.28l1.35,0s1.59.2,1.56-4.64l0-17.25S210.25,81,208,81l-1.44,0S206.26,80.93,206.25,80.69Zm7.5,11.93c-.07,1.32,1.69,1.35,1.69,1.35h2.5c3.31-.81,3.28-5.44,3.28-5.44.31-6.5-5.41-6.56-5.41-6.56-2.22-.13-2.06.69-2.06.69Zm35.75,3.17-3.42-9-3.37,9Z"/><path class="cls-1" d="M30.44,80.54h9.81s6.94-.12,7,5a7.07,7.07,0,0,1-3.37,6.19s6,1.44,6.06,7.5c0,0,.56,6.94-9.06,7.25H31.31a.49.49,0,0,1-.39-.41s-.09-.34.37-.3l.92,0s1.5,0,1.54-2.75.08-20.38.08-20.38.13-1.62-3.39-1.58c0,0-.31-.09-.31-.29C30.13,80.82,30.08,80.54,30.44,80.54Zm7.39,9.9c.09,1.29,1.05,1.13,1.05,1.13H40c4.16-.13,3.68-4.75,3.68-4.75a4.68,4.68,0,0,0-4.33-5c-1.34-.09-1.55.58-1.55.58Zm0,11.88c.09,3,3.71,2.66,3.71,2.66a4.12,4.12,0,0,0,4.34-4.46c-.67-7.83-6.25-7.58-6.25-7.58h-1.8Z"/><path class="cls-1" d="M68.17,80S82.33,79.77,82,93c0,0,.25,13-13.83,13.84,0,0-13.5.48-14.09-13.35C54.08,93.51,53.83,80.52,68.17,80ZM58.81,92.23c.19,13.25,10.5,13,10.5,13,9.07-.87,7.94-11,7.94-11-.62-13-9.77-12.44-9.77-12.44C58.27,81.67,58.81,92.23,58.81,92.23Z"/><path class="cls-1" d="M85,80.79s-.25-.31.31-.31H95.88s8.18-.25,8.12,6.19c0,0,.75,3.5-4.44,7.75l6.32,7.94s3.12,3.62,6.06,3.5c0,0,2.75.56,4.25-3.07L125.38,80s.43-.45.75,0l9.18,22.34a4.58,4.58,0,0,0,4.44,3.53s.23,0,.23.15c0,0,.23.4-.35.4h-8.17s-.52.15-.48-.4a.25.25,0,0,1,.25-.27s.92.15.37-1.2-2.81-6.92-2.81-6.92l-7.83,0-2.46,5.83s-.87,2.21.71,2.33l1.21,0s.29-.08.28.26a.35.35,0,0,1-.32.38h-13.3s-3.27,0-6.27-4.35l-4.68-6.38H92.56l.13,7.56s.06,2.32,1.56,2.44h1.42s.55-.06.53.35c0,0,.13.35-.4.38H86.05a.42.42,0,0,1-.52-.42.23.23,0,0,1,.25-.28h1.35s1.59.2,1.56-4.64l0-17.25s.34-2.72-1.91-2.75l-1.44,0S85,81,85,80.79Zm7.5,11.94c-.07,1.31,1.69,1.35,1.69,1.35h2.5c3.31-.82,3.28-5.44,3.28-5.44.31-6.5-5.41-6.56-5.41-6.56-2.22-.13-2.06.68-2.06.68Zm35.75,3.17-3.42-9-3.37,9Z"/><path class="cls-1" d="M275.58,102.58,276,80.44s0-.94.81-.32l19,19.57V83.75s.07-2.75-2.5-2.75l-1,0a.27.27,0,0,1-.22-.28s-.15-.25.32-.28l8.37-.06s.47-.07.53.31a.38.38,0,0,1-.37.31h-.85s-1.59.41-1.65,1.66L298,105.62s.13,1.91-1.19.79l-18.75-19,.32,14.84s.22,3.4,1.81,3.44l1.37.06a.26.26,0,0,1,.35.25.34.34,0,0,1-.38.37l-8.59-.09s-.53,0-.5-.31c0,0,0-.32.34-.28H274S275.85,105.7,275.58,102.58Z"/><path class="cls-1" d="M305.5,80.42h9.63s.46-.08.43.36a.41.41,0,0,1-.4.25h-.66s-1.75.06-1.78,2.53l-.06,12.78s.09,8.93,6.75,8.79h.15c6.82-.28,6.75-6.65,6.85-7.87V83.5s.37-2.44-1.75-2.47h-1.35a.34.34,0,0,1-.31-.34s0-.27.44-.28h8.4s.47-.07.47.31a.42.42,0,0,1-.4.28s-2.44-.41-2.44,2.5l-.06,11.72s1.09,11.2-10.24,11.57c0,0-10.79.79-10.84-10.5L308.38,83a1.74,1.74,0,0,0-1.8-2l-1.08,0s-.59.14-.56-.39C304.94,80.69,305,80.42,305.5,80.42Z"/><path class="cls-1" d="M336.72,80.41h9.41s.43-.1.4.4c0,0,0,.25-.4.28a1.91,1.91,0,0,0-2.47,2l0,20.38s0,2.12,1.59,2.12h1.63a.35.35,0,0,1,.47.32s0,.4-.5.44H337s-.56-.1-.56-.47c0,0-.1-.25.34-.22l1.13,0s1.46,0,1.46-2.57l0-20s.13-2.09-1.37-2.06h-1.35s-.26.09-.19-.37C336.4,80.66,336.38,80.41,336.72,80.41Z"/></g></g></svg>