<svg xmlns="http://www.w3.org/2000/svg" viewBox="0 0 512.25 220.17"><defs><style>.cls-1{fill:#fff;}</style></defs><g id="Capa_2" data-name="Capa 2"><g id="Capa_1-2" data-name="Capa 1"><polygon class="cls-1" points="91.56 202.83 91.56 194.33 8.72 194.33 8.72 8.75 503.56 8.67 503.56 194.67 420.06 194.33 420.06 202.83 512.25 202.83 512.25 0 0 0 0 202.83 91.56 202.83"/><polygon class="cls-1" points="43.23 43.75 77.97 43.75 77.97 48.5 71.22 49.75 71.22 88.25 116.22 88.25 116.22 50 108.72 49 108.47 43.75 143.72 43.75 143.72 48.75 136.47 49.75 136.47 139.75 143.72 142 143.72 146.5 108.97 146.5 108.72 141.75 115.97 140.25 115.97 99 71.22 99 71.22 139.75 77.72 141.5 77.97 146.5 43.23 146.5 43.23 141.5 50.73 140.5 50.48 49.75 43.23 48.75 43.23 43.75"/><polygon class="cls-1" points="159.22 73.5 184.47 73.5 184.47 141 190.72 142.25 190.72 146.5 159.22 146.5 159.22 142 165.47 141 165.72 79 159.22 77.75 159.22 73.5"/><circle class="cls-1" cx="174.98" cy="54" r="10.25"/><polygon class="cls-1" points="205.22 43.75 230.72 43.75 230.72 141.25 237.47 142.5 237.47 146.5 205.22 146.5 205.22 142.25 211.97 141.25 211.47 49.25 205.22 48.25 205.22 43.75"/><path class="cls-1" d="M257.73,58l18.5-5.75V73.5h17.5v6.75h-17l-.13,46.87S275.6,140,290.35,139c0,0,7.63-.75,9-1.12v5.24s-12.62,5.13-25,4.76c0,0-16,1.37-16.62-16.63V80.38H244V73.5l14,.12Z"/><path class="cls-1" d="M341.35,77s19.54-3,18.54,34.17c0,0,1.92,32.66-18.54,32.16,0,0-18.12,1.27-17.62-33.2C323.73,110.13,322.81,77.17,341.35,77Zm-38.62,33.13c-1.67,41.3,37.83,38.7,37.83,38.7,44.16-2.16,40.17-38.69,40.17-38.69,0-40.53-36.67-38.64-36.67-38.64C301.89,71.17,302.73,110.13,302.73,110.13Z"/><path class="cls-1" d="M388.56,73.17h25.67v10.5S429.39,71,442.39,72.33c0,0,19-2.16,19.5,23.5V141.5l6.34.67v4.33H436.56l-.5-4.67,7-.83-.17-43.5s1.08-15.18-13.16-15a33.88,33.88,0,0,0-15.84,5.83l-.16,52.5,6.66,1.5.17,4.17h-32v-4.67l7-1-.5-61.5-6.5-.66Z"/><polygon class="cls-1" points="109.39 178.83 116.56 178.83 116.56 195 138.22 195 138.22 178.83 144.89 178.83 144.89 218 138.06 218 137.89 201.83 116.56 201.5 116.89 218 109.39 218 109.39 178.83"/><path class="cls-1" d="M202,199.08A21.09,21.09,0,1,1,180.93,178,21.09,21.09,0,0,1,202,199.08Zm-34.42-.58a13.34,13.34,0,1,0,13.33-13.33A13.33,13.33,0,0,0,167.6,198.5Z"/><path class="cls-1" d="M308.85,199.08A21.09,21.09,0,1,1,287.77,178,21.08,21.08,0,0,1,308.85,199.08Zm-34.42-.58a13.34,13.34,0,1,0,13.34-13.33A13.33,13.33,0,0,0,274.43,198.5Z"/><polygon class="cls-1" points="216.89 178.83 224.39 178.83 245.22 206.5 245.22 178.83 252.39 178.83 252.39 218 244.72 218 223.89 190.67 223.72 218 216.89 218 216.89 178.83"/><path class="cls-1" d="M349.56,203.67l9.5,14.66h-8.17l-9.5-13.5-10.5-.33v13.83h-7.16V179h19.33s15.67-.92,15,13.21C358.06,192.21,358.89,200.83,349.56,203.67Zm-18.67-18.34v13.75h13.5s6.5-.5,6.34-6.87c0,0,.33-6.71-7.17-6.88Z"/><path class="cls-1" d="M402.56,182.67l-3,5.5a30.7,30.7,0,0,0-13.5-3.67s-6.67-.67-7.17,4.5c0,0-2.66,2.67,11.84,6.67s13.33,9,12.66,13.5c0,0,.17,9.16-16,9.83,0,0-11.16-.33-17.83-5.17l3-5.5s7.66,4.67,16,4.5c0,0,7.67-.16,7.33-5.16,0,0,1.46-4.25-11.41-6.84,0,0-13.13-1.71-13.5-10.83,0,0,.25-12.5,16.5-11.75A32.78,32.78,0,0,1,402.56,182.67Z"/></g></g></svg>